<svg xmlns="http://www.w3.org/2000/svg" xmlns:xlink="http://www.w3.org/1999/xlink" width="1300" zoomAndPan="magnify" viewBox="0 0 974.88 374.999991" height="500" preserveAspectRatio="xMidYMid meet" version="1.0"><defs><g/></defs><g fill="#d97706" fill-opacity="1"><g transform="translate(13.416317, 263.795219)"><g><path d="M 70.65625 0 L 38.421875 0 L 38.421875 -140.625 L 5.484375 -140.625 L 5.484375 -167.734375 L 38.421875 -167.734375 L 38.421875 -220.203125 L 70.65625 -220.203125 L 70.65625 -167.734375 L 103.59375 -167.734375 L 103.59375 -140.625 L 70.65625 -140.625 Z M 70.65625 0 "/></g></g></g><g fill="#d97706" fill-opacity="1"><g transform="translate(120.775183, 263.795219)"><g><path d="M 12.34375 -84.03125 C 12.34375 -101.414062 16.113281 -116.679688 23.65625 -129.828125 C 31.207031 -142.972656 41.613281 -153.316406 54.875 -160.859375 C 68.144531 -168.410156 83.125 -172.1875 99.8125 -172.1875 C 116.507812 -172.1875 131.429688 -168.410156 144.578125 -160.859375 C 157.722656 -153.316406 168.066406 -142.972656 175.609375 -129.828125 C 183.160156 -116.679688 186.9375 -101.414062 186.9375 -84.03125 C 186.9375 -66.882812 183.160156 -51.675781 175.609375 -38.40625 C 168.066406 -25.144531 157.722656 -14.742188 144.578125 -7.203125 C 131.429688 0.335938 116.507812 4.109375 99.8125 4.109375 C 83.125 4.109375 68.144531 0.335938 54.875 -7.203125 C 41.613281 -14.742188 31.207031 -25.144531 23.65625 -38.40625 C 16.113281 -51.675781 12.34375 -66.882812 12.34375 -84.03125 Z M 44.9375 -84.03125 C 44.9375 -66.65625 50.019531 -52.421875 60.1875 -41.328125 C 70.363281 -30.242188 83.570312 -24.703125 99.8125 -24.703125 C 110.5625 -24.703125 120.050781 -27.210938 128.28125 -32.234375 C 136.507812 -37.265625 142.96875 -44.238281 147.65625 -53.15625 C 152.34375 -62.082031 154.6875 -72.375 154.6875 -84.03125 C 154.6875 -95.695312 152.34375 -105.988281 147.65625 -114.90625 C 142.96875 -123.820312 136.507812 -130.796875 128.28125 -135.828125 C 120.050781 -140.859375 110.5625 -143.375 99.8125 -143.375 C 83.570312 -143.375 70.363281 -137.882812 60.1875 -126.90625 C 50.019531 -115.9375 44.9375 -101.644531 44.9375 -84.03125 Z M 44.9375 -84.03125 "/></g></g></g><g fill="#d97706" fill-opacity="1"><g transform="translate(320.05797, 263.795219)"><g><path d="M 12.34375 -84.03125 C 12.34375 -101.414062 16.113281 -116.679688 23.65625 -129.828125 C 31.207031 -142.972656 41.613281 -153.316406 54.875 -160.859375 C 68.144531 -168.410156 83.125 -172.1875 99.8125 -172.1875 C 116.507812 -172.1875 131.429688 -168.410156 144.578125 -160.859375 C 157.722656 -153.316406 168.066406 -142.972656 175.609375 -129.828125 C 183.160156 -116.679688 186.9375 -101.414062 186.9375 -84.03125 C 186.9375 -66.882812 183.160156 -51.675781 175.609375 -38.40625 C 168.066406 -25.144531 157.722656 -14.742188 144.578125 -7.203125 C 131.429688 0.335938 116.507812 4.109375 99.8125 4.109375 C 83.125 4.109375 68.144531 0.335938 54.875 -7.203125 C 41.613281 -14.742188 31.207031 -25.144531 23.65625 -38.40625 C 16.113281 -51.675781 12.34375 -66.882812 12.34375 -84.03125 Z M 44.9375 -84.03125 C 44.9375 -66.65625 50.019531 -52.421875 60.1875 -41.328125 C 70.363281 -30.242188 83.570312 -24.703125 99.8125 -24.703125 C 110.5625 -24.703125 120.050781 -27.210938 128.28125 -32.234375 C 136.507812 -37.265625 142.96875 -44.238281 147.65625 -53.15625 C 152.34375 -62.082031 154.6875 -72.375 154.6875 -84.03125 C 154.6875 -95.695312 152.34375 -105.988281 147.65625 -114.90625 C 142.96875 -123.820312 136.507812 -130.796875 128.28125 -135.828125 C 120.050781 -140.859375 110.5625 -143.375 99.8125 -143.375 C 83.570312 -143.375 70.363281 -137.882812 60.1875 -126.90625 C 50.019531 -115.9375 44.9375 -101.644531 44.9375 -84.03125 Z M 44.9375 -84.03125 "/></g></g></g><g fill="#d97706" fill-opacity="1"><g transform="translate(519.340756, 263.795219)"><g><path d="M 56.25 0 L 24.015625 0 L 24.015625 -252.453125 L 56.25 -252.453125 Z M 56.25 0 "/></g></g></g><g fill="#d97706" fill-opacity="1"><g transform="translate(599.602617, 263.795219)"><g><path d="M 95.703125 4.109375 C 79.234375 4.109375 64.765625 0.394531 52.296875 -7.03125 C 39.835938 -14.457031 30.0625 -24.742188 22.96875 -37.890625 C 15.882812 -51.046875 12.34375 -66.3125 12.34375 -83.6875 C 12.34375 -101.300781 15.769531 -116.738281 22.625 -130 C 29.488281 -143.257812 39.09375 -153.660156 51.4375 -161.203125 C 63.789062 -168.753906 78.085938 -172.53125 94.328125 -172.53125 C 110.328125 -172.53125 124.210938 -169.097656 135.984375 -162.234375 C 147.765625 -155.378906 156.914062 -145.773438 163.4375 -133.421875 C 169.957031 -121.078125 173.21875 -106.554688 173.21875 -89.859375 L 173.21875 -77.859375 L 43.5625 -77.515625 C 44.707031 -59.910156 49.796875 -46.363281 58.828125 -36.875 C 67.859375 -27.382812 80.378906 -22.640625 96.390625 -22.640625 C 121.992188 -22.640625 137.65625 -32.472656 143.375 -52.140625 L 173.5625 -52.140625 C 169.445312 -34.066406 160.640625 -20.171875 147.140625 -10.453125 C 133.648438 -0.742188 116.503906 4.109375 95.703125 4.109375 Z M 94.328125 -145.4375 C 80.378906 -145.4375 69.054688 -141.429688 60.359375 -133.421875 C 51.671875 -125.421875 46.300781 -113.988281 44.25 -99.125 L 140.96875 -99.125 C 140.96875 -113.070312 136.738281 -124.273438 128.28125 -132.734375 C 119.820312 -141.203125 108.503906 -145.4375 94.328125 -145.4375 Z M 94.328125 -145.4375 "/></g></g></g><g fill="#d97706" fill-opacity="1"><g transform="translate(780.70651, 263.795219)"><g><path d="M 7.203125 75.109375 L 7.203125 48.703125 L 28.8125 48.703125 C 36.582031 48.703125 43.5 47.382812 49.5625 44.75 C 55.625 42.125 60.597656 35.550781 64.484375 25.03125 L 70.3125 8.921875 L 2.75 -167.734375 L 36.703125 -167.734375 L 85.40625 -32.578125 L 135.140625 -167.734375 L 168.40625 -167.734375 L 89.1875 37.734375 C 83.46875 52.140625 76.257812 62.539062 67.5625 68.9375 C 58.875 75.34375 48.128906 78.546875 35.328125 78.546875 C 30.066406 78.546875 25.148438 78.203125 20.578125 77.515625 C 16.003906 76.828125 11.546875 76.023438 7.203125 75.109375 Z M 7.203125 75.109375 "/></g></g></g></svg>